# xmcd
#
# Track frame offsets: 
#        183
#        18070
#        36170
#        57220
#        80208
#        99420
#        115133
#        127420
#        166733
#        179988
#        187408
#
# Disc length: 2935 seconds
#
# Revision: 5
# Processed by: cddbd v1.5.1PL2 Copyright (c) Steve Scherf et al.
# Submitted via: ExactAudioCopy v0.95b3
#
DISCID=9d0b750b
DTITLE=Carmel - Everybodys Got A Little ... Soul
DYEAR=1987
DGENRE=Blues
TTITLE0=It's All In the Game
TTITLE1=Every Little Bit
TTITLE2=Sweet And Lovely
TTITLE3=Nothing Good
TTITLE4=Azure
TTITLE5=Lay Down
TTITLE6=Jazz Robin
TTITLE7=I Do And Do
TTITLE8=A Hey Hey (Everybody's Got A Little... Soul)
TTITLE9=A Hey Hey (Reprise)
TTITLE10=It's All In The Game (12'')
EXTD=JUKE LIVE AT THE QUASIMODO BERLIN YEAR: 1987 ID3G:   0
EXTT0=
EXTT1=
EXTT2=
EXTT3=
EXTT4=
EXTT5=
EXTT6=
EXTT7=
EXTT8=
EXTT9=
EXTT10=
PLAYORDER=
